<?xml version="1.0" encoding="UTF-8" standalone="no"?>
<!-- Created with Inkscape (http://www.inkscape.org/) -->

<svg
   version="1.1"
   id="svg2"
   width="188.00079"
   height="169.76112"
   viewBox="0 0 188.00079 169.76112"
   sodipodi:docname="reshuffle.svg"
   inkscape:version="1.2.2 (b0a8486541, 2022-12-01)"
   xmlns:inkscape="http://www.inkscape.org/namespaces/inkscape"
   xmlns:sodipodi="http://sodipodi.sourceforge.net/DTD/sodipodi-0.dtd"
   xmlns="http://www.w3.org/2000/svg"
   xmlns:svg="http://www.w3.org/2000/svg">
  <defs
     id="defs6" />
  <sodipodi:namedview
     id="namedview4"
     pagecolor="#ffffff"
     bordercolor="#666666"
     borderopacity="1.0"
     inkscape:showpageshadow="2"
     inkscape:pageopacity="0.0"
     inkscape:pagecheckerboard="0"
     inkscape:deskcolor="#d1d1d1"
     showgrid="false"
     inkscape:zoom="2.4794118"
     inkscape:cx="131.88612"
     inkscape:cy="88.125741"
     inkscape:window-width="1920"
     inkscape:window-height="1020"
     inkscape:window-x="0"
     inkscape:window-y="32"
     inkscape:window-maximized="1"
     inkscape:current-layer="g8" />
  <g
     inkscape:groupmode="layer"
     inkscape:label="Image"
     id="g8"
     transform="translate(-6.9588635,-0.4037338)">
    <path
       style="fill:#000000"
       d="m 86.181143,168.8202 c -21.930399,-3.96484 -42.863616,-17.82781 -55.420338,-36.70199 -3.21062,-4.82593 -4.990694,-6.6468 -6.1639,-6.30516 -12.080054,3.5177 -17.2422907,4.83131 -17.596014,4.47759 -0.9117393,-0.91174 13.301296,-43.379174 14.429104,-43.11303 1.58927,0.375041 34.017319,28.16437 34.017319,29.15126 0,0.43483 -3.762063,1.8016 -8.360139,3.03727 -4.598077,1.23568 -8.943046,2.60693 -9.655488,3.04725 -0.970363,0.59972 -0.156935,2.39591 3.242221,7.1594 13.779218,19.30984 36.489401,30.83094 60.773402,30.83094 11.97,0 21.48817,-2.19877 32.5,-7.50776 10.73131,-5.17374 20.36095,-12.89108 26.97241,-21.61611 4.9443,-6.5249 12.52759,-21.29567 12.52759,-24.40129 0,-1.47567 0.62575,-1.63048 4.25,-1.05146 2.3375,0.37344 4.61659,1.04505 5.06464,1.49245 1.32818,1.32624 -4.90323,16.05009 -10.22074,24.14999 -18.82732,28.67877 -52.87518,43.40444 -86.360067,37.35065 z M 163.06774,68.364295 c -9.14124,-8.359219 -16.62043,-15.506454 -16.62043,-15.882744 0,-0.37629 4.275,-1.714767 9.5,-2.974394 5.225,-1.259627 9.5,-2.648695 9.5,-3.086818 0,-1.491857 -8.64558,-12.504504 -12.6186,-16.073444 -14.4321,-12.964258 -32.41249,-19.943161 -51.3814,-19.943161 -27.789409,0 -53.625995,15.527871 -66.342966,39.872336 -1.904174,3.645215 -4.040402,8.584179 -4.747175,10.975475 l -1.28504,4.347811 -4.062408,-0.648997 c -2.234324,-0.356948 -4.42171,-1.007766 -4.860857,-1.446261 -0.439148,-0.438496 0.367497,-3.902962 1.792545,-7.698814 8.123242,-21.637617 27.386084,-41.19664 48.648163,-49.3961656 8.695676,-3.3534075 22.322451,-6.0053846 30.857738,-6.0053846 27.01332,0 55.21835,15.0268862 70.23116,37.4172942 2.24315,3.345488 4.16964,6.206044 4.28107,6.356791 0.11143,0.150746 4.30267,-0.725853 9.31386,-1.947998 5.01119,-1.222145 9.36185,-1.971477 9.66815,-1.665182 0.58578,0.585786 -13.23161,40.737229 -14.51159,42.168665 -0.40798,0.456264 -8.22098,-6.00979 -17.36222,-14.369009 z"
       id="path847" />
  </g>
</svg>
