<?xml version="1.0" encoding="UTF-8" standalone="no"?>
<!-- Created with Inkscape (http://www.inkscape.org/) -->

<svg
   version="1.1"
   id="svg4795"
   width="52.575237"
   height="80.217987"
   viewBox="0 0 52.575237 80.217987"
   sodipodi:docname="rocket.svg"
   inkscape:version="1.2.2 (b0a8486541, 2022-12-01)"
   xmlns:inkscape="http://www.inkscape.org/namespaces/inkscape"
   xmlns:sodipodi="http://sodipodi.sourceforge.net/DTD/sodipodi-0.dtd"
   xmlns="http://www.w3.org/2000/svg"
   xmlns:svg="http://www.w3.org/2000/svg">
  <defs
     id="defs4799" />
  <sodipodi:namedview
     id="namedview4797"
     pagecolor="#ffffff"
     bordercolor="#666666"
     borderopacity="1.0"
     inkscape:showpageshadow="2"
     inkscape:pageopacity="0.0"
     inkscape:pagecheckerboard="0"
     inkscape:deskcolor="#d1d1d1"
     showgrid="false"
     inkscape:zoom="3.9930165"
     inkscape:cx="14.274922"
     inkscape:cy="3.1304654"
     inkscape:window-width="1920"
     inkscape:window-height="1020"
     inkscape:window-x="0"
     inkscape:window-y="32"
     inkscape:window-maximized="1"
     inkscape:current-layer="svg4795" />
  <path
     style="fill:#000000"
     d="M 6.1598756,75.848982 C 2.6257856,69.818514 -0.36951243,58.411318 0.03708257,52.531138 0.42310357,46.948503 3.6327476,37.858932 6.5096276,34.201174 l 1.966287,-2.5 0.02224,2.734223 c 0.01276,1.569181 1.236668,4.09341 2.8723714,5.924079 l 2.850135,3.189854 0.559541,-10.924078 c 0.771468,-15.0616 4.845791,-27.4904743 10.53461,-32.13622213 1.222502,-0.998351 1.982046,-0.5858085 4.306385,2.33899243 5.419085,6.8190319 8.847016,19.8350017 8.920952,33.8731517 l 0.03687,7 2.970686,-3.265777 c 1.748454,-1.922134 2.979836,-4.390721 2.992923,-6 l 0.02223,-2.734223 1.966286,2.5 c 8.037974,10.219737 8.061138,27.771493 0.0551,41.75 -3.595957,6.278525 -5.171765,5.483174 -2.837212,-1.432014 2.506366,-7.424116 3.371329,-17.970011 1.851571,-22.574924 l -1.182516,-3.583058 -3.38261,2.169998 c -2.748162,1.76299 -3.910829,3.670491 -6.198849,10.169998 l -2.816241,8 h -5.5 -5.5 l -2.778104,-8 C 15.98869,54.211577 14.873517,52.362583 12.335665,50.907796 10.233049,49.702501 8.8765426,49.445022 8.1989596,50.122605 5.4306486,52.890916 6.7044736,70.788898 10.143065,77.4384 c 1.238692,2.395366 1.23843,2.762774 -0.002,2.762774 -0.7868624,0 -2.5784084,-1.958486 -3.9812134,-4.352192 z M 31.025957,29.195019 c 2.534422,-2.800505 1.601752,-8.093296 -1.75557,-9.962649 -2.469384,-1.374949 -3.030616,-1.374927 -5.5,2.22e-4 -3.960645,2.2056 -4.382127,7.932891 -0.79164,10.757168 2.840212,2.234111 5.548164,1.966674 8.04721,-0.794741 z"
     id="path5285" />
  <g
     inkscape:groupmode="layer"
     inkscape:label="Image"
     id="g4801"
     transform="translate(46.765058,6.1977559)" />
</svg>
