<?xml version="1.0" encoding="UTF-8" standalone="no"?>
<!-- Created with Inkscape (http://www.inkscape.org/) -->

<svg
   version="1.1"
   id="svg2"
   width="400"
   height="400"
   viewBox="0 0 400 400"
   sodipodi:docname="circled-bis.svg"
   inkscape:version="1.2.2 (b0a8486541, 2022-12-01)"
   xmlns:inkscape="http://www.inkscape.org/namespaces/inkscape"
   xmlns:sodipodi="http://sodipodi.sourceforge.net/DTD/sodipodi-0.dtd"
   xmlns="http://www.w3.org/2000/svg"
   xmlns:svg="http://www.w3.org/2000/svg">
  <defs
     id="defs6" />
  <sodipodi:namedview
     id="namedview4"
     pagecolor="#ffffff"
     bordercolor="#666666"
     borderopacity="1.0"
     inkscape:showpageshadow="2"
     inkscape:pageopacity="0.0"
     inkscape:pagecheckerboard="0"
     inkscape:deskcolor="#d1d1d1"
     showgrid="false"
     inkscape:zoom="1.8823885"
     inkscape:cx="52.592756"
     inkscape:cy="199.48061"
     inkscape:window-width="1920"
     inkscape:window-height="1020"
     inkscape:window-x="0"
     inkscape:window-y="32"
     inkscape:window-maximized="1"
     inkscape:current-layer="g8" />
  <g
     inkscape:groupmode="layer"
     inkscape:label="Image"
     id="g8">
    <path
       style="fill:#000000"
       d="m 189,383.43727 c -3.72055,-0.87034 -9.70598,-1.11996 -18.5,-0.77151 -12.81927,0.50793 -13.14597,0.46651 -23.5,-2.97954 -14.6569,-4.87815 -23.23391,-8.24518 -27.14949,-10.65793 l -3.35051,-2.06457 5.5,0.60379 c 3.025,0.33209 6.54309,0.2065 7.81798,-0.27908 2.14427,-0.81671 1.91944,-1.06284 -3,-3.28418 -2.92489,-1.32072 -9.66495,-5.01197 -14.97792,-8.20278 C 106.52709,352.61066 101.85663,350 101.46126,350 c -0.39537,0 -2.462195,-1.575 -4.59294,-3.5 -4.641228,-4.19307 -2.401026,-4.90643 2.844206,-0.9057 1.870724,1.42687 4.532284,2.71846 5.914584,2.8702 1.3823,0.15173 3.04419,0.81096 3.69308,1.46494 0.90913,0.91625 0.77831,1.0362 -0.57019,0.52282 -3.26215,-1.24192 -1.77145,0.34489 3,3.19342 2.6125,1.55965 5.44826,2.88668 6.30168,2.94897 1.97158,0.1439 11.51481,3.73255 15.44832,5.80921 1.65,0.8711 3.5625,1.58659 4.25,1.58998 0.6875,0.003 1.25,0.41999 1.25,0.92579 0,2.3585 22.90348,7.70138 36,8.39801 5.225,0.27793 8.63182,0.27163 7.57072,-0.014 -1.0611,-0.28564 -2.55574,-1.14581 -3.32143,-1.91149 C 178.48361,370.62647 176.59699,370 175.0568,370 c -1.54019,0 -7.24555,-1.17511 -12.67858,-2.61135 -5.43302,-1.43625 -13.27738,-3.39574 -17.43191,-4.35443 -12.96395,-2.99154 -17.8445,-5.01362 -22.04962,-9.13548 C 120.52158,351.57065 117.95923,350 116.53633,350 c -1.31059,0 -3.71987,-1.125 -5.35396,-2.5 -1.6341,-1.375 -3.39487,-2.5 -3.91284,-2.5 -1.11951,0 -11.813888,-8.12986 -18.549801,-14.10154 -3.618063,-3.20757 -5.061442,-3.95675 -5.936756,-3.08143 -0.875314,0.87531 -0.661057,1.70674 0.881259,3.41973 1.120759,1.24478 2.319671,3.06115 2.66425,4.03638 0.516273,1.46115 0.308082,1.60272 -1.183232,0.8046 C 82.994053,334.92645 80.415208,332 81.551869,332 c 0.438218,0 -0.0986,-1.0125 -1.192937,-2.25 -2.489683,-2.8154 -6.091998,-8.69502 -4.288749,-7 0.731399,0.6875 1.695462,1.25 2.142362,1.25 1.544578,0 -4.529289,-8.52488 -10.939099,-15.3534 -3.538241,-3.76937 -7.236061,-8.71937 -8.217378,-11 -1.856322,-4.31419 -7.328507,-11.63266 -13.19475,-17.6466 -4.638412,-4.75519 -8.231101,-9.98248 -8.395607,-12.21542 -0.07486,-1.01612 -1.138883,-3.20382 -2.364496,-4.86155 -1.225614,-1.65773 -2.087274,-4.00608 -1.914802,-5.21854 0.263574,-1.85291 0.758895,-1.44693 3.105741,2.54551 1.535684,2.6125 3.223184,4.75 3.75,4.75 C 40.568969,265 41,265.675 41,266.5 c 0,0.825 0.458573,1.5 1.019052,1.5 0.595433,0 0.761141,-1.14317 0.398624,-2.75 -0.833338,-3.6937 -5.855509,-11.8027 -7.14691,-11.53969 -1.835698,0.37387 -4.683263,-3.73735 -5.895538,-8.51177 -1.015728,-4.00035 -0.988706,-4.39042 0.192259,-2.77536 1.206512,1.65 1.299857,1.22047 0.765386,-3.522 -0.334789,-2.97065 -0.996645,-6.1591 -1.47079,-7.08544 -1.412127,-2.75888 -0.973113,-7.12735 1.020083,-10.15048 1.818184,-2.75768 1.684361,-7.32155 -0.309271,-10.54731 -1.251402,-2.02481 1.038366,-1.16459 3.013343,1.13205 C 35.883605,216.08441 41,228.76412 41,233.10141 c 0,0.95983 1.090318,3.04091 2.422928,4.62463 1.332611,1.58371 3.357611,5.65404 4.5,9.04518 C 50.175021,253.45645 50.632361,256.5259 49,254 c -1.640703,-2.53881 -1.123737,-0.16434 1.983352,9.1097 3.982248,11.88622 6.051526,15.71023 10.807193,19.97164 2.198197,1.96974 4.909845,5.34474 6.025884,7.5 C 68.932468,292.7366 72.840075,297.425 76.5,301 c 3.659925,3.575 7.524082,8.17823 8.587016,10.22939 1.062933,2.05117 3.234533,4.40265 4.825776,5.22551 C 92.793206,317.94442 105,329.723 105,331.01284 c 0,1.27984 3.659,3.98716 5.38873,3.98716 0.95219,0 3.77964,1.56406 6.28323,3.47569 2.50359,1.91163 6.18909,3.76787 8.19001,4.12498 2.00092,0.3571 6.56303,2.09326 10.13803,3.85812 3.575,1.76487 8.6375,4.01976 11.25,5.01089 2.6125,0.99112 4.75,2.17934 4.75,2.6405 0,2.06164 6.43667,4.10222 11.4156,3.61902 4.16639,-0.40434 6.07745,0.001 10.5844,2.24669 6.36334,3.17024 15.38613,4.27373 37.5,4.58626 12.26009,0.17327 14.93209,-0.0949 21.5,-2.15798 4.125,-1.29572 7.63577,-1.95942 7.80171,-1.47489 0.52625,1.53662 7.26744,-0.87686 20.91612,-7.48838 7.26981,-3.52155 13.88546,-6.14663 14.70144,-5.83351 0.92221,0.35389 3.14238,-1.13744 5.86731,-3.94119 2.41105,-2.48078 8.1704,-7.34224 12.79857,-10.80323 10.46267,-7.82411 29.46607,-26.74416 37.52755,-37.36297 23.7582,-31.29496 36.39287,-67.0435 36.38328,-102.94289 -0.006,-20.76506 -1.57912,-29.86333 -9.04852,-52.31783 -0.59657,-1.7934 -2.78978,-6.0684 -4.87379,-9.5 -2.08402,-3.43161 -5.0115,-8.65263 -6.5055,-11.60228 -1.49401,-2.94965 -3.52728,-5.57505 -4.51838,-5.83423 -1.80602,-0.47228 -2.83446,-2.09722 -5.02005,-7.93172 -0.64465,-1.72092 -2.04686,-3.52092 -3.11601,-4 -1.06915,-0.47908 -3.63377,-3.12105 -5.69915,-5.87105 -2.06539,-2.75 -5.22703,-5.739657 -7.02588,-6.643683 -4.52341,-2.273282 -14.97454,-12.211699 -11.95585,-11.36932 1.85124,0.516595 1.62507,0.07156 -1.23285,-2.42591 -1.925,-1.682212 -4.625,-3.356073 -6,-3.719691 C 299.22524,70.34316 292.9521,66.990583 288.70944,63.704025 282.2989,58.738141 262.61991,51.787615 243.97848,47.905264 233.74587,45.774173 229.94932,45.516386 209,45.530219 188.51274,45.543748 184.08978,45.836527 174.5,47.813956 154.58432,51.920604 138.10226,58.00734 122.21232,67.12352 107.93349,75.315388 100.94723,80.869109 86,95.910477 55.683987,126.41742 37.824357,156.61896 31.543019,188 30.607254,192.675 28.977263,200.67516 27.920815,205.77814 26.864367,210.88112 26,216.16862 26,217.52814 26,218.88766 25.580324,220 25.067388,220 c -0.512937,0 -1.218262,0.9 -1.567388,2 -1.08816,3.42849 -4.856779,2.5077 -7.162465,-1.75 C 10.30223,209.10514 9.5631603,191.72753 14.242931,171 17.321804,157.36312 20.96924,146.83783 28.327813,130.3557 32.757487,120.43387 34.779159,117.16539 39.374864,112.49567 42.468689,109.35201 45,106.40318 45,105.94271 45,105.07415 62.466976,84.032064 73.93362,71.087006 95.264367,47.00605 105.63035,38.472819 124.5,29.461002 c 15.42529,-7.366853 25.96075,-9.512144 49.5,-14.702545 14.99443,-3.30627 42.50318,-3.297849 59.5,-0.862474 2.78109,0.398486 8.84807,1.702693 13.55127,2.505758 9.66329,1.64999 36.77604,10.975377 47.25989,16.254958 30.96343,15.592931 56.8004,41.707409 73.0586,73.843301 9.0313,17.85124 13.86341,34.18861 18.63352,63 1.55511,9.39285 0.80854,36.42734 -1.35213,48.96281 -5.14424,29.84506 -16.55987,58.83454 -32.63436,82.87345 -5.94427,8.88946 -25.77965,31.5618 -28.34,32.39333 -0.38882,0.12628 -3.06266,1.96694 -5.94187,4.09037 -6.68938,4.93344 -31.67787,21.45798 -36.81461,24.34498 -2.15617,1.21184 -3.92031,2.74662 -3.92031,3.41062 0,0.664 -1.9125,1.99422 -4.25,2.95603 -6.50638,2.67718 -19.06399,6.48776 -19.6032,5.94854 -0.26407,-0.26407 0.15737,-0.49381 0.93653,-0.51054 0.99081,-0.0213 0.87487,-0.34562 -0.38569,-1.07899 -1.16438,-0.67742 -2.22629,-0.70753 -3,-0.0851 -0.6587,0.52993 -2.77264,1.29325 -4.69764,1.69625 -1.925,0.40301 -6.2,1.98539 -9.5,3.51641 -4.99934,2.31942 -7.91794,2.89678 -17.5,3.46187 -7.16234,0.4224 -12.3354,1.21414 -13.71482,2.09907 -2.6282,1.68606 -8.69715,1.63319 -16.28518,-0.14187 z M 187.5,371 c -0.33992,-0.55 -1.46492,-1 -2.5,-1 -1.03508,0 -2.16008,0.45 -2.5,1 -0.36155,0.585 0.67595,1 2.5,1 1.82405,0 2.86155,-0.415 2.5,-1 z m -54.99563,-1.00706 c 0.34231,-0.55389 -0.10054,-1.28448 -0.98412,-1.62354 -1.91464,-0.73472 -2.98171,0.0749 -2.06137,1.56407 0.83038,1.34358 2.23491,1.37101 3.04549,0.0595 z M 110.5,372.15589 C 95.674302,365.01678 73,350.26777 73,347.76317 c 0,-1.96633 3.11408,-0.16634 10,5.78018 C 91.012613,360.46286 98.864906,365 102.82767,365 105.51422,365 123,374.60017 123,376.07515 c 0,1.69369 -2.41825,0.93547 -12.5,-3.91926 z m 2.25,-8.84522 c -0.9625,-0.25152 -1.75,-0.92311 -1.75,-1.4924 0,-1.17754 4.94796,-0.21672 6.45,1.25249 0.98917,0.96756 -1.44092,1.0916 -4.7,0.23991 z m 181.677,-6.83214 c 1.05985,-0.80183 2.17182,-1.21305 2.47104,-0.91382 0.62769,0.62769 -1.9121,2.41268 -3.39804,2.38817 -0.55,-0.009 -0.13285,-0.67253 0.927,-1.47435 z M 156.5,356 c -0.7149,-1.15673 1.88811,-1.15673 5.5,0 2.24559,0.71916 2.12439,0.81078 -1.19098,0.90032 C 158.77898,356.95514 156.83992,356.55 156.5,356 Z M 320,338.20578 c 0,-0.52849 0.7269,-1.56417 1.61534,-2.3015 1.39754,-1.15986 1.56608,-1.08641 1.25,0.54469 C 322.4887,338.39259 320,339.91847 320,338.20578 Z M 54.119931,327.99961 C 52.352133,325.79983 51.323549,324 51.834188,324 c 1.110928,0 6.556447,6.9427 5.933853,7.56529 -0.238664,0.23867 -1.880313,-1.36589 -3.64811,-3.56568 z M 329,330 c 0,-0.55 0.47656,-1 1.05902,-1 0.58246,0 0.7809,0.45 0.44098,1 -0.33992,0.55 -0.81648,1 -1.05902,1 C 329.19844,331 329,330.55 329,330 Z M 68.763434,320.47524 c -2.816468,-2.06642 -5.362621,-4.97353 -6.28094,-7.17138 -2.058376,-4.92639 -6.376991,-10.4871 -7.571331,-9.74896 -0.978468,0.60473 -5.462371,-8.33703 -4.608725,-9.19067 0.258254,-0.25826 1.420855,0.73983 2.583558,2.21797 C 54.048698,298.06033 55,298.8839 55,298.41235 c 0,-0.47155 0.76034,0.25527 1.689645,1.61514 0.929304,1.35988 2.240039,2.8104 2.912743,3.22337 0.672703,0.41297 3.11566,3.56297 5.428792,7 2.313133,3.43703 5.132178,6.98625 6.264546,7.88717 1.132367,0.90092 2.128867,2.58842 2.214443,3.75 0.08558,1.16158 0.118297,2.10081 0.07271,2.08718 -0.04559,-0.0136 -2.214336,-1.58862 -4.819447,-3.49997 z M 44.954163,287.91435 c -0.613912,-1.1471 -0.927843,-2.274 -0.697624,-2.50422 0.230219,-0.23022 0.932031,0.70832 1.559582,2.08564 1.378071,3.02454 0.707091,3.35038 -0.861958,0.41858 z m 4.146228,-0.20983 c -1.264918,-2.10631 -1.243608,-2.12762 0.478332,-0.47833 0.991226,0.94941 1.58698,1.94144 1.323898,2.20452 -0.263082,0.26308 -1.074085,-0.5137 -1.80223,-1.72619 z m 9.164814,-11.17968 c -1.628161,-2.51379 -1.821709,-3.29189 -0.713015,-2.86644 1.641421,0.62987 5.006401,6.34969 3.72349,6.32922 -0.426624,-0.007 -1.781338,-1.56506 -3.010475,-3.46278 z m -2.91346,-7.25649 c -0.165075,-2.67028 -0.08147,-2.65222 1.458787,0.31498 0.805961,1.55264 0.776783,2.08332 -0.114546,2.08327 -0.657792,-3e-5 -1.262701,-1.07925 -1.344241,-2.39825 z M 23.157895,266 c 0,-1.375 0.226973,-1.9375 0.504386,-1.25 0.277412,0.6875 0.277412,1.8125 0,2.5 -0.277413,0.6875 -0.504386,0.125 -0.504386,-1.25 z m 28.156528,-6.75 c -0.342544,-0.9625 -0.811791,-2.2 -1.042772,-2.75 -0.230981,-0.55 0.288405,-0.12649 1.154192,0.94113 1.572088,1.93858 2.046844,3.55887 1.042772,3.55887 -0.292261,0 -0.811648,-0.7875 -1.154192,-1.75 z m -31.623792,-3.93522 c -2.270743,-7.22547 -2.890866,-10.55657 -1.844885,-9.91011 1.155459,0.71411 4.659815,13.4231 3.908445,14.17447 -0.302732,0.30273 -1.231335,-1.61623 -2.06356,-4.26436 z M 16.232003,238 c 0,-1.925 0.205795,-2.7125 0.457323,-1.75 0.251527,0.9625 0.251527,2.5375 0,3.5 -0.251528,0.9625 -0.457323,0.175 -0.457323,-1.75 z"
       id="path847"
       sodipodi:nodetypes="sssscssssssssssssscssssssssssssssssssssssssssssssssssssssssssssssssssssssssscsssssssscssssssssssssssssssssssssssssssssssssssssssssssssssssssssssssssssssssssssssssssssssssssssssssssssssssssssssssssssssssscssssssssssssssssssssss" />
    <path
       style="fill:none;stroke:#ff0000;stroke-width:1;stroke-linecap:butt;stroke-linejoin:miter;stroke-dasharray:none;stroke-opacity:1"
       d="M 5.8675652,223.7513 C 29.8029,62.897383 152.50238,26.040296 211.90954,28.739843 c 145.70033,0 166.10898,124.593187 166.10898,187.254677 C 356.7476,340.94531 245.80325,372.53033 204.45444,372.53033 59.105463,369.44535 43.507538,280.41825 24.118564,208.05762"
       id="path959"
       sodipodi:nodetypes="ccccc" />
  </g>
</svg>
