<?xml version="1.0" encoding="UTF-8" standalone="no"?>
<!-- Created with Inkscape (http://www.inkscape.org/) -->

<svg
   version="1.1"
   id="svg2"
   width="145.39607"
   height="145.39607"
   viewBox="0 0 145.39607 145.39607"
   sodipodi:docname="heart.svg"
   inkscape:version="1.2.2 (b0a8486541, 2022-12-01)"
   xml:space="preserve"
   xmlns:inkscape="http://www.inkscape.org/namespaces/inkscape"
   xmlns:sodipodi="http://sodipodi.sourceforge.net/DTD/sodipodi-0.dtd"
   xmlns="http://www.w3.org/2000/svg"
   xmlns:svg="http://www.w3.org/2000/svg"
   xmlns:rdf="http://www.w3.org/1999/02/22-rdf-syntax-ns#"
   xmlns:cc="http://creativecommons.org/ns#"
   xmlns:dc="http://purl.org/dc/elements/1.1/"><metadata
     id="metadata8"><rdf:RDF><cc:Work
         rdf:about=""><dc:format>image/svg+xml</dc:format><dc:type
           rdf:resource="http://purl.org/dc/dcmitype/StillImage" /></cc:Work></rdf:RDF></metadata><defs
     id="defs6" /><sodipodi:namedview
     pagecolor="#ffffff"
     bordercolor="#666666"
     borderopacity="1"
     objecttolerance="10"
     gridtolerance="10"
     guidetolerance="10"
     inkscape:pageopacity="0"
     inkscape:pageshadow="2"
     inkscape:window-width="1920"
     inkscape:window-height="1020"
     id="namedview4"
     showgrid="false"
     inkscape:zoom="3.3544368"
     inkscape:cx="46.505572"
     inkscape:cy="57.088571"
     inkscape:window-x="0"
     inkscape:window-y="32"
     inkscape:window-maximized="1"
     inkscape:current-layer="svg2"
     inkscape:showpageshadow="2"
     inkscape:pagecheckerboard="0"
     inkscape:deskcolor="#d1d1d1" /><path
     style="fill:#000000;stroke-width:1.33333"
     d=""
     id="path817"
     inkscape:connector-curvature="0" /><path
     style="fill:none;stroke:#000000;stroke-width:0.246024;stroke-opacity:1"
     d="M 68.409412,123.49629 C 60.014241,115.46565 37.052622,93.466451 28.118445,84.767242 20.482385,77.33201 15.830047,70.486494 13.386711,63.090744 11.957657,58.765133 11.688048,56.747211 11.841795,51.527636 c 0.180482,-6.127175 1.008075,-9.760439 3.278331,-14.392379 3.861479,-7.878468 11.544193,-13.278859 21.370247,-15.021732 3.554052,-0.630391 10.378662,-0.639621 13.03925,-0.01763 2.647536,0.618936 5.746237,1.730717 8.046781,2.887102 3.628895,1.824087 9.863934,6.32311 13.476933,9.724557 l 1.602502,1.508673 1.836689,-1.721235 c 3.538355,-3.315937 9.670079,-7.727399 13.191516,-9.490625 2.414157,-1.208798 6.256524,-2.56247 8.590058,-3.02629 2.42517,-0.482034 9.418368,-0.414133 12.359188,0.120003 7.22093,1.311525 12.52669,3.981507 16.84238,8.475476 3.90089,4.062033 6.0478,8.247223 7.36957,14.366248 0.71834,3.325471 0.90249,10.36435 0.34935,13.353483 -1.47878,7.991318 -5.69239,15.620214 -12.83405,23.236562 -4.12202,4.395999 -45.208568,43.845601 -46.03614,44.202001 -0.99023,0.42644 -2.426469,0.42285 -3.390726,-0.008 v -4.8e-4 c -0.300366,-0.13435 -6.537084,-6.02378 -14.932256,-14.05442"
     id="path1918"
     sodipodi:nodetypes="csssssssscsssssssssccc" /></svg>
